<svg xmlns="http://www.w3.org/2000/svg" viewBox="-1.535 -1.535 3.07 3.07" width="200" height="200">
  <!-- Outer squares -->
  <rect data-layer="outer" x="-1.3" y="-1.3" width="0.65" height="0.65" fill="none" stroke="white" stroke-width="0.03"/>
  <rect data-layer="outer" x="-0.65" y="-1.3" width="0.65" height="0.65" fill="none" stroke="white" stroke-width="0.03"/>
  <rect data-layer="outer" x="0" y="-1.3" width="0.65" height="0.65" fill="none" stroke="white" stroke-width="0.03"/>
  <rect data-layer="outer" x="0.65" y="-1.3" width="0.65" height="0.65" fill="none" stroke="white" stroke-width="0.03"/>
  <rect data-layer="outer" x="-1.3" y="-0.65" width="0.65" height="0.65" fill="none" stroke="white" stroke-width="0.03"/>
  <rect data-layer="outer" x="-0.65" y="-0.65" width="0.65" height="0.65" fill="none" stroke="white" stroke-width="0.03"/>
  <rect data-layer="outer" x="0" y="-0.65" width="0.65" height="0.65" fill="none" stroke="white" stroke-width="0.03"/>
  <rect data-layer="outer" x="0.65" y="-0.65" width="0.65" height="0.65" fill="none" stroke="white" stroke-width="0.03"/>
  <rect data-layer="outer" x="-1.3" y="0" width="0.65" height="0.65" fill="none" stroke="white" stroke-width="0.03"/>
  <rect data-layer="outer" x="-0.65" y="0" width="0.65" height="0.65" fill="none" stroke="white" stroke-width="0.03"/>
  <rect data-layer="outer" x="0" y="0" width="0.65" height="0.65" fill="none" stroke="white" stroke-width="0.03"/>
  <rect data-layer="outer" x="0.65" y="0" width="0.65" height="0.65" fill="none" stroke="white" stroke-width="0.03"/>
  <rect data-layer="outer" x="-1.3" y="0.65" width="0.65" height="0.65" fill="none" stroke="white" stroke-width="0.03"/>
  <rect data-layer="outer" x="-0.65" y="0.65" width="0.65" height="0.65" fill="none" stroke="white" stroke-width="0.03"/>
  <rect data-layer="outer" x="0" y="0.65" width="0.65" height="0.65" fill="none" stroke="white" stroke-width="0.03"/>
  <rect data-layer="outer" x="0.65" y="0.65" width="0.65" height="0.65" fill="none" stroke="white" stroke-width="0.03"/>
  <!-- Star diamonds -->
  <polygon data-layer="star" points="-0.975,-1.435 -0.515,-0.975 -0.975,-0.515 -1.435,-0.975" fill="none" stroke="white" stroke-width="0.03"/>
  <polygon data-layer="star" points="-0.325,-1.435 0.135,-0.975 -0.325,-0.515 -0.785,-0.975" fill="none" stroke="white" stroke-width="0.03"/>
  <polygon data-layer="star" points="0.325,-1.435 0.785,-0.975 0.325,-0.515 -0.135,-0.975" fill="none" stroke="white" stroke-width="0.03"/>
  <polygon data-layer="star" points="0.975,-1.435 1.435,-0.975 0.975,-0.515 0.515,-0.975" fill="none" stroke="white" stroke-width="0.03"/>
  <polygon data-layer="star" points="-0.975,-0.785 -0.515,-0.325 -0.975,0.135 -1.435,-0.325" fill="none" stroke="white" stroke-width="0.03"/>
  <polygon data-layer="star" points="-0.325,-0.785 0.135,-0.325 -0.325,0.135 -0.785,-0.325" fill="none" stroke="white" stroke-width="0.03"/>
  <polygon data-layer="star" points="0.325,-0.785 0.785,-0.325 0.325,0.135 -0.135,-0.325" fill="none" stroke="white" stroke-width="0.03"/>
  <polygon data-layer="star" points="0.975,-0.785 1.435,-0.325 0.975,0.135 0.515,-0.325" fill="none" stroke="white" stroke-width="0.03"/>
  <polygon data-layer="star" points="-0.975,-0.135 -0.515,0.325 -0.975,0.785 -1.435,0.325" fill="none" stroke="white" stroke-width="0.03"/>
  <polygon data-layer="star" points="-0.325,-0.135 0.135,0.325 -0.325,0.785 -0.785,0.325" fill="none" stroke="white" stroke-width="0.03"/>
  <polygon data-layer="star" points="0.325,-0.135 0.785,0.325 0.325,0.785 -0.135,0.325" fill="none" stroke="white" stroke-width="0.03"/>
  <polygon data-layer="star" points="0.975,-0.135 1.435,0.325 0.975,0.785 0.515,0.325" fill="none" stroke="white" stroke-width="0.03"/>
  <polygon data-layer="star" points="-0.975,0.515 -0.515,0.975 -0.975,1.435 -1.435,0.975" fill="none" stroke="white" stroke-width="0.03"/>
  <polygon data-layer="star" points="-0.325,0.515 0.135,0.975 -0.325,1.435 -0.785,0.975" fill="none" stroke="white" stroke-width="0.03"/>
  <polygon data-layer="star" points="0.325,0.515 0.785,0.975 0.325,1.435 -0.135,0.975" fill="none" stroke="white" stroke-width="0.03"/>
  <polygon data-layer="star" points="0.975,0.515 1.435,0.975 0.975,1.435 0.515,0.975" fill="none" stroke="white" stroke-width="0.03"/>
  <!-- Inner octagons -->
  <polygon data-layer="detail" points="-0.796,-0.975 -0.849,-0.849 -0.975,-0.796 -1.101,-0.849 -1.154,-0.975 -1.101,-1.101 -0.975,-1.154 -0.849,-1.101" fill="none" stroke="white" stroke-width="0.02"/>
  <polygon data-layer="detail" points="-0.146,-0.975 -0.199,-0.849 -0.325,-0.796 -0.451,-0.849 -0.504,-0.975 -0.451,-1.101 -0.325,-1.154 -0.199,-1.101" fill="none" stroke="white" stroke-width="0.02"/>
  <polygon data-layer="detail" points="0.504,-0.975 0.451,-0.849 0.325,-0.796 0.199,-0.849 0.146,-0.975 0.199,-1.101 0.325,-1.154 0.451,-1.101" fill="none" stroke="white" stroke-width="0.02"/>
  <polygon data-layer="detail" points="1.154,-0.975 1.101,-0.849 0.975,-0.796 0.849,-0.849 0.796,-0.975 0.849,-1.101 0.975,-1.154 1.101,-1.101" fill="none" stroke="white" stroke-width="0.02"/>
  <polygon data-layer="detail" points="-0.796,-0.325 -0.849,-0.199 -0.975,-0.146 -1.101,-0.199 -1.154,-0.325 -1.101,-0.451 -0.975,-0.504 -0.849,-0.451" fill="none" stroke="white" stroke-width="0.02"/>
  <polygon data-layer="detail" points="-0.146,-0.325 -0.199,-0.199 -0.325,-0.146 -0.451,-0.199 -0.504,-0.325 -0.451,-0.451 -0.325,-0.504 -0.199,-0.451" fill="none" stroke="white" stroke-width="0.02"/>
  <polygon data-layer="detail" points="0.504,-0.325 0.451,-0.199 0.325,-0.146 0.199,-0.199 0.146,-0.325 0.199,-0.451 0.325,-0.504 0.451,-0.451" fill="none" stroke="white" stroke-width="0.02"/>
  <polygon data-layer="detail" points="1.154,-0.325 1.101,-0.199 0.975,-0.146 0.849,-0.199 0.796,-0.325 0.849,-0.451 0.975,-0.504 1.101,-0.451" fill="none" stroke="white" stroke-width="0.02"/>
  <polygon data-layer="detail" points="-0.796,0.325 -0.849,0.451 -0.975,0.504 -1.101,0.451 -1.154,0.325 -1.101,0.199 -0.975,0.146 -0.849,0.199" fill="none" stroke="white" stroke-width="0.02"/>
  <polygon data-layer="detail" points="-0.146,0.325 -0.199,0.451 -0.325,0.504 -0.451,0.451 -0.504,0.325 -0.451,0.199 -0.325,0.146 -0.199,0.199" fill="none" stroke="white" stroke-width="0.02"/>
  <polygon data-layer="detail" points="0.504,0.325 0.451,0.451 0.325,0.504 0.199,0.451 0.146,0.325 0.199,0.199 0.325,0.146 0.451,0.199" fill="none" stroke="white" stroke-width="0.02"/>
  <polygon data-layer="detail" points="1.154,0.325 1.101,0.451 0.975,0.504 0.849,0.451 0.796,0.325 0.849,0.199 0.975,0.146 1.101,0.199" fill="none" stroke="white" stroke-width="0.02"/>
  <polygon data-layer="detail" points="-0.796,0.975 -0.849,1.101 -0.975,1.154 -1.101,1.101 -1.154,0.975 -1.101,0.849 -0.975,0.796 -0.849,0.849" fill="none" stroke="white" stroke-width="0.02"/>
  <polygon data-layer="detail" points="-0.146,0.975 -0.199,1.101 -0.325,1.154 -0.451,1.101 -0.504,0.975 -0.451,0.849 -0.325,0.796 -0.199,0.849" fill="none" stroke="white" stroke-width="0.02"/>
  <polygon data-layer="detail" points="0.504,0.975 0.451,1.101 0.325,1.154 0.199,1.101 0.146,0.975 0.199,0.849 0.325,0.796 0.451,0.849" fill="none" stroke="white" stroke-width="0.02"/>
  <polygon data-layer="detail" points="1.154,0.975 1.101,1.101 0.975,1.154 0.849,1.101 0.796,0.975 0.849,0.849 0.975,0.796 1.101,0.849" fill="none" stroke="white" stroke-width="0.02"/>
  <!-- Lattice connectors -->
  <polygon data-layer="detail" points="-0.65,-0.84 -0.46,-0.65 -0.65,-0.46 -0.84,-0.65" fill="none" stroke="white" stroke-width="0.02"/>
  <polygon data-layer="detail" points="0,-0.84 0.19,-0.65 0,-0.46 -0.19,-0.65" fill="none" stroke="white" stroke-width="0.02"/>
  <polygon data-layer="detail" points="0.65,-0.84 0.84,-0.65 0.65,-0.46 0.46,-0.65" fill="none" stroke="white" stroke-width="0.02"/>
  <polygon data-layer="detail" points="-0.65,-0.19 -0.46,0 -0.65,0.19 -0.84,0" fill="none" stroke="white" stroke-width="0.02"/>
  <polygon data-layer="detail" points="0,-0.19 0.19,0 0,0.19 -0.19,0" fill="none" stroke="white" stroke-width="0.02"/>
  <polygon data-layer="detail" points="0.65,-0.19 0.84,0 0.65,0.19 0.46,0" fill="none" stroke="white" stroke-width="0.02"/>
  <polygon data-layer="detail" points="-0.65,0.46 -0.46,0.65 -0.65,0.84 -0.84,0.65" fill="none" stroke="white" stroke-width="0.02"/>
  <polygon data-layer="detail" points="0,0.46 0.19,0.65 0,0.84 -0.19,0.65" fill="none" stroke="white" stroke-width="0.02"/>
  <polygon data-layer="detail" points="0.65,0.46 0.84,0.65 0.65,0.84 0.46,0.65" fill="none" stroke="white" stroke-width="0.02"/>
  <polygon data-layer="detail" points="-0.65,-1.11 -0.515,-0.975 -0.65,-0.84 -0.785,-0.975" fill="none" stroke="white" stroke-width="0.015"/>
  <polygon data-layer="detail" points="-0.65,0.84 -0.515,0.975 -0.65,1.11 -0.785,0.975" fill="none" stroke="white" stroke-width="0.015"/>
  <polygon data-layer="detail" points="0,-1.11 0.135,-0.975 0,-0.84 -0.135,-0.975" fill="none" stroke="white" stroke-width="0.015"/>
  <polygon data-layer="detail" points="0,0.84 0.135,0.975 0,1.11 -0.135,0.975" fill="none" stroke="white" stroke-width="0.015"/>
  <polygon data-layer="detail" points="0.65,-1.11 0.785,-0.975 0.65,-0.84 0.515,-0.975" fill="none" stroke="white" stroke-width="0.015"/>
  <polygon data-layer="detail" points="0.65,0.84 0.785,0.975 0.65,1.11 0.515,0.975" fill="none" stroke="white" stroke-width="0.015"/>
  <polygon data-layer="detail" points="-0.975,-0.785 -0.84,-0.65 -0.975,-0.515 -1.11,-0.65" fill="none" stroke="white" stroke-width="0.015"/>
  <polygon data-layer="detail" points="0.975,-0.785 1.11,-0.65 0.975,-0.515 0.84,-0.65" fill="none" stroke="white" stroke-width="0.015"/>
  <polygon data-layer="detail" points="-0.975,-0.135 -0.84,0 -0.975,0.135 -1.11,0" fill="none" stroke="white" stroke-width="0.015"/>
  <polygon data-layer="detail" points="0.975,-0.135 1.11,0 0.975,0.135 0.84,0" fill="none" stroke="white" stroke-width="0.015"/>
  <polygon data-layer="detail" points="-0.975,0.515 -0.84,0.65 -0.975,0.785 -1.11,0.65" fill="none" stroke="white" stroke-width="0.015"/>
  <polygon data-layer="detail" points="0.975,0.515 1.11,0.65 0.975,0.785 0.84,0.65" fill="none" stroke="white" stroke-width="0.015"/>
  <!-- Center dots -->
  <circle data-layer="center" cx="-0.975" cy="-0.975" r="0.039" fill="white" stroke="none"/>
  <circle data-layer="center" cx="-0.325" cy="-0.975" r="0.039" fill="white" stroke="none"/>
  <circle data-layer="center" cx="0.325" cy="-0.975" r="0.039" fill="white" stroke="none"/>
  <circle data-layer="center" cx="0.975" cy="-0.975" r="0.039" fill="white" stroke="none"/>
  <circle data-layer="center" cx="-0.975" cy="-0.325" r="0.039" fill="white" stroke="none"/>
  <circle data-layer="center" cx="-0.325" cy="-0.325" r="0.039" fill="white" stroke="none"/>
  <circle data-layer="center" cx="0.325" cy="-0.325" r="0.039" fill="white" stroke="none"/>
  <circle data-layer="center" cx="0.975" cy="-0.325" r="0.039" fill="white" stroke="none"/>
  <circle data-layer="center" cx="-0.975" cy="0.325" r="0.039" fill="white" stroke="none"/>
  <circle data-layer="center" cx="-0.325" cy="0.325" r="0.039" fill="white" stroke="none"/>
  <circle data-layer="center" cx="0.325" cy="0.325" r="0.039" fill="white" stroke="none"/>
  <circle data-layer="center" cx="0.975" cy="0.325" r="0.039" fill="white" stroke="none"/>
  <circle data-layer="center" cx="-0.975" cy="0.975" r="0.039" fill="white" stroke="none"/>
  <circle data-layer="center" cx="-0.325" cy="0.975" r="0.039" fill="white" stroke="none"/>
  <circle data-layer="center" cx="0.325" cy="0.975" r="0.039" fill="white" stroke="none"/>
  <circle data-layer="center" cx="0.975" cy="0.975" r="0.039" fill="white" stroke="none"/>
  <circle data-layer="center" cx="-0.65" cy="-0.65" r="0.029" fill="white" stroke="none"/>
  <circle data-layer="center" cx="0" cy="-0.65" r="0.029" fill="white" stroke="none"/>
  <circle data-layer="center" cx="0.65" cy="-0.65" r="0.029" fill="white" stroke="none"/>
  <circle data-layer="center" cx="-0.65" cy="0" r="0.029" fill="white" stroke="none"/>
  <circle data-layer="center" cx="0" cy="0" r="0.029" fill="white" stroke="none"/>
  <circle data-layer="center" cx="0.65" cy="0" r="0.029" fill="white" stroke="none"/>
  <circle data-layer="center" cx="-0.65" cy="0.65" r="0.029" fill="white" stroke="none"/>
  <circle data-layer="center" cx="0" cy="0.65" r="0.029" fill="white" stroke="none"/>
  <circle data-layer="center" cx="0.65" cy="0.65" r="0.029" fill="white" stroke="none"/>
  <circle data-layer="glow" cx="0" cy="0" r="1.458" fill="white" fill-opacity="0.05" stroke="none"/>
</svg>